<svg id="SRF" xmlns="http://www.w3.org/2000/svg" viewBox="0 0 642.75 422.1"><defs><style>.cls-1{fill:#af001e;}.cls-2{fill:#fff;}</style></defs><title>SRF-RGB v8 [Konvertiert]</title><rect class="cls-1" width="642.75" height="422.1"/><path class="cls-2" d="M471.76,898.5l-3.73,24c-.62,4.67,1.56,6.53,5.6,7.16,9,1.24,31.73,2.79,53.8,2.79,49.46,0,85.54-16.17,85.54-62.2,0-27.07-11.81-47.28-52.87-57.86l-23-5.91c-15.54-4-22.71-9-22.71-20.52,0-16.18,14.93-19.28,29.24-19.28,19.29,0,38.88,1.55,46.65,2.17,8.1.62,10.26-.31,11.51-7.15l3.74-23.33c.62-4.66-1.56-6.53-5.6-7.15-9-1.25-28.93-2.8-54.12-2.8-51.33,0-76.2,22.39-76.2,57.85,0,32,17.41,51,47.58,58.78l23,5.91c19,5,27,10.57,27,22.4,0,17.41-11.82,20.52-40.44,20.52-13,0-35.76-1.86-43.53-2.48C475.18,890.72,473,891.66,471.76,898.5Z" transform="translate(-393.89 -619.48)"/><path class="cls-2" d="M873,811.41v-42.3h81.49c6.22,0,8.08-2.18,8.08-8.4V738.94c0-6.23-1.86-8.4-8.08-8.4H836.31c-6.22,0-8.09,2.17-8.09,8.4v183.2c0,6.22,1.87,8.4,8.09,8.4h28.62c6.21,0,8.09-2.18,8.09-8.4V850h74c6.22,0,8.09-2.18,8.09-8.4V819.82c0-6.23-1.87-8.41-8.09-8.41Z" transform="translate(-393.89 -619.48)"/><path class="cls-2" d="M712.35,827.27l-3.11,13.07a31.14,31.14,0,0,0-1.25,6.83c0,3.12.94,5.61,3.12,9.34l37,66.57c3.12,5.28,5.61,7.46,13.07,7.46h33.91c4.35,0,9.64-2.8,4.67-10.57l-45.42-75.28c15.23-9.64,32.35-23.33,32.35-53.49,0-38.88-21.78-60.66-69.68-60.66H647.65c-6.23,0-8.09,2.17-8.09,8.4v183.2c0,6.22,1.86,8.4,8.09,8.4h28.61c6.23,0,8.09-2.18,8.09-8.4V767.55H713.9c18.66,0,27.68,6.85,27.68,24.27,0,15.85-7.14,20.84-14.3,23.95C718.26,819.5,715.14,815.45,712.35,827.27Z" transform="translate(-393.89 -619.48)"/></svg>